<svg data-v-423bf9ae="" xmlns="http://www.w3.org/2000/svg" viewBox="0 0 334.9128989606943 60" class="font"><!----><!----><!----><g data-v-423bf9ae="" id="2dd9b8ab-906b-48eb-8880-e86427234471" fill="#488eff" transform="matrix(4.181184835713808,0,0,4.181184835713808,-3.1776968306690776,-5.268292614705935)"><path d="M3.95 4.62L3.95 4.62Q4.86 4.62 5.58 4.91L5.58 4.91L5.58 4.91Q6.30 5.21 6.72 5.73L6.72 5.73L6.72 5.73Q6.90 5.95 6.90 6.17L6.90 6.17L6.90 6.17Q6.90 6.41 6.66 6.61L6.66 6.61L6.66 6.61Q6.51 6.72 6.27 6.72L6.27 6.72L6.27 6.72Q5.91 6.72 5.61 6.45L5.61 6.45L5.61 6.45Q5.26 6.13 4.87 6.00L4.87 6.00L4.87 6.00Q4.48 5.87 3.92 5.87L3.92 5.87L3.92 5.87Q3.28 5.87 2.86 6.08L2.86 6.08L2.86 6.08Q2.45 6.30 2.45 6.69L2.45 6.69L2.45 6.69Q2.45 6.97 2.59 7.16L2.59 7.16L2.59 7.16Q2.73 7.35 3.12 7.51L3.12 7.51L3.12 7.51Q3.51 7.67 4.26 7.83L4.26 7.83L4.26 7.83Q5.78 8.13 6.42 8.68L6.42 8.68L6.42 8.68Q7.06 9.23 7.06 10.09L7.06 10.09L7.06 10.09Q7.06 10.74 6.71 11.26L6.71 11.26L6.71 11.26Q6.36 11.79 5.68 12.09L5.68 12.09L5.68 12.09Q5.00 12.39 4.05 12.39L4.05 12.39L4.05 12.39Q3.09 12.39 2.25 12.10L2.25 12.10L2.25 12.10Q1.41 11.80 0.94 11.33L0.94 11.33L0.94 11.33Q0.76 11.14 0.76 10.89L0.76 10.89L0.76 10.89Q0.76 10.56 1.04 10.35L1.04 10.35L1.04 10.35Q1.30 10.15 1.53 10.15L1.53 10.15L1.53 10.15Q1.81 10.15 2.06 10.40L2.06 10.40L2.06 10.40Q2.32 10.70 2.86 10.91L2.86 10.91L2.86 10.91Q3.39 11.13 3.99 11.13L3.99 11.13L3.99 11.13Q4.79 11.13 5.23 10.86L5.23 10.86L5.23 10.86Q5.67 10.60 5.67 10.15L5.67 10.15L5.67 10.15Q5.67 9.72 5.24 9.43L5.24 9.43L5.24 9.43Q4.80 9.14 3.77 8.95L3.77 8.95L3.77 8.95Q1.08 8.43 1.08 6.73L1.08 6.73L1.08 6.73Q1.08 6.05 1.48 5.57L1.48 5.57L1.48 5.57Q1.89 5.10 2.55 4.86L2.55 4.86L2.55 4.86Q3.21 4.62 3.95 4.62L3.95 4.62ZM15.18 4.66L15.18 4.66Q15.50 4.66 15.69 4.86L15.69 4.86L15.69 4.86Q15.89 5.05 15.89 5.38L15.89 5.38L15.89 11.62L15.89 11.62Q15.89 11.93 15.69 12.13L15.69 12.13L15.69 12.13Q15.50 12.33 15.18 12.33L15.18 12.33L15.18 12.33Q14.87 12.33 14.66 12.13L14.66 12.13L14.66 12.13Q14.46 11.93 14.46 11.62L14.46 11.62L14.46 11.47L14.46 11.47Q14.01 11.91 13.40 12.16L13.40 12.16L13.40 12.16Q12.78 12.40 12.08 12.40L12.08 12.40L12.08 12.40Q11.12 12.40 10.35 11.98L10.35 11.98L10.35 11.98Q9.58 11.56 9.14 10.76L9.14 10.76L9.14 10.76Q8.71 9.95 8.71 8.82L8.71 8.82L8.71 5.38L8.71 5.38Q8.71 5.07 8.91 4.86L8.91 4.86L8.91 4.86Q9.11 4.66 9.42 4.66L9.42 4.66L9.42 4.66Q9.73 4.66 9.93 4.86L9.93 4.86L9.93 4.86Q10.14 5.07 10.14 5.38L10.14 5.38L10.14 8.82L10.14 8.82Q10.14 9.95 10.75 10.54L10.75 10.54L10.75 10.54Q11.35 11.12 12.36 11.12L12.36 11.12L12.36 11.12Q12.95 11.12 13.43 10.88L13.43 10.88L13.43 10.88Q13.92 10.64 14.19 10.23L14.19 10.23L14.19 10.23Q14.46 9.83 14.46 9.32L14.46 9.32L14.46 5.38L14.46 5.38Q14.46 5.05 14.66 4.86L14.66 4.86L14.66 4.86Q14.87 4.66 15.18 4.66L15.18 4.66ZM22.26 4.62L22.26 4.62Q23.34 4.62 24.23 5.13L24.23 5.13L24.23 5.13Q25.12 5.64 25.62 6.53L25.62 6.53L25.62 6.53Q26.12 7.42 26.12 8.51L26.12 8.51L26.12 8.51Q26.12 9.60 25.66 10.49L25.66 10.49L25.66 10.49Q25.19 11.38 24.37 11.89L24.37 11.89L24.37 11.89Q23.55 12.39 22.54 12.39L22.54 12.39L22.54 12.39Q21.73 12.39 21.03 12.05L21.03 12.05L21.03 12.05Q20.33 11.72 19.84 11.12L19.84 11.12L19.84 14.90L19.84 14.90Q19.84 15.22 19.64 15.41L19.64 15.41L19.64 15.41Q19.45 15.61 19.12 15.61L19.12 15.61L19.12 15.61Q18.82 15.61 18.61 15.41L18.61 15.41L18.61 15.41Q18.41 15.22 18.41 14.90L18.41 14.90L18.41 8.51L18.41 8.51Q18.41 7.42 18.92 6.53L18.92 6.53L18.92 6.53Q19.43 5.64 20.31 5.13L20.31 5.13L20.31 5.13Q21.18 4.62 22.26 4.62L22.26 4.62ZM22.26 11.13L22.26 11.13Q22.96 11.13 23.53 10.79L23.53 10.79L23.53 10.79Q24.09 10.44 24.42 9.85L24.42 9.85L24.42 9.85Q24.75 9.25 24.75 8.51L24.75 8.51L24.75 8.51Q24.75 7.77 24.42 7.17L24.42 7.17L24.42 7.17Q24.09 6.57 23.53 6.22L23.53 6.22L23.53 6.22Q22.96 5.88 22.26 5.88L22.26 5.88L22.26 5.88Q21.56 5.88 20.99 6.22L20.99 6.22L20.99 6.22Q20.43 6.57 20.10 7.17L20.10 7.17L20.10 7.17Q19.78 7.77 19.78 8.51L19.78 8.51L19.78 8.51Q19.78 9.25 20.10 9.85L20.10 9.85L20.10 9.85Q20.43 10.44 20.99 10.79L20.99 10.79L20.99 10.79Q21.56 11.13 22.26 11.13L22.26 11.13ZM31.72 4.62L31.72 4.62Q32.80 4.62 33.68 5.13L33.68 5.13L33.68 5.13Q34.55 5.64 35.06 6.53L35.06 6.53L35.06 6.53Q35.57 7.42 35.57 8.51L35.57 8.51L35.57 11.63L35.57 11.63Q35.57 11.94 35.37 12.14L35.37 12.14L35.37 12.14Q35.17 12.35 34.86 12.35L34.86 12.35L34.86 12.35Q34.55 12.35 34.35 12.14L34.35 12.14L34.35 12.14Q34.15 11.94 34.15 11.63L34.15 11.63L34.15 11.12L34.15 11.12Q33.66 11.72 32.96 12.05L32.96 12.05L32.96 12.05Q32.26 12.39 31.44 12.39L31.44 12.39L31.44 12.39Q30.44 12.39 29.62 11.89L29.62 11.89L29.62 11.89Q28.80 11.38 28.33 10.49L28.33 10.49L28.33 10.49Q27.86 9.60 27.86 8.51L27.86 8.51L27.86 8.51Q27.86 7.42 28.36 6.53L28.36 6.53L28.36 6.53Q28.87 5.64 29.76 5.13L29.76 5.13L29.76 5.13Q30.65 4.62 31.72 4.62L31.72 4.62ZM31.72 11.13L31.72 11.13Q32.42 11.13 32.99 10.79L32.99 10.79L32.99 10.79Q33.56 10.44 33.88 9.85L33.88 9.85L33.88 9.85Q34.20 9.25 34.20 8.51L34.20 8.51L34.20 8.51Q34.20 7.77 33.88 7.17L33.88 7.17L33.88 7.17Q33.56 6.57 32.99 6.22L32.99 6.22L32.99 6.22Q32.42 5.88 31.72 5.88L31.72 5.88L31.72 5.88Q31.02 5.88 30.46 6.22L30.46 6.22L30.46 6.22Q29.89 6.57 29.56 7.17L29.56 7.17L29.56 7.17Q29.23 7.77 29.23 8.51L29.23 8.51L29.23 8.51Q29.23 9.25 29.56 9.85L29.56 9.85L29.56 9.85Q29.89 10.44 30.46 10.79L30.46 10.79L30.46 10.79Q31.02 11.13 31.72 11.13L31.72 11.13ZM42.74 1.26L42.74 1.26Q43.81 1.26 44.58 1.54L44.58 1.54L44.58 1.54Q45.36 1.82 46.16 2.46L46.16 2.46L46.16 2.46Q46.33 2.59 46.38 2.72L46.38 2.72L46.38 2.72Q46.44 2.86 46.44 3.04L46.44 3.04L46.44 3.04Q46.44 3.32 46.23 3.50L46.23 3.50L46.23 3.50Q46.03 3.68 45.77 3.68L45.77 3.68L45.77 3.68Q45.50 3.68 45.28 3.50L45.28 3.50L45.28 3.50Q44.70 3.01 44.16 2.79L44.16 2.79L44.16 2.79Q43.61 2.58 42.74 2.58L42.74 2.58L42.74 2.58Q41.65 2.58 40.73 3.15L40.73 3.15L40.73 3.15Q39.82 3.72 39.28 4.71L39.28 4.71L39.28 4.71Q38.74 5.70 38.74 6.86L38.74 6.86L38.74 6.86Q38.74 8.04 39.28 9.02L39.28 9.02L39.28 9.02Q39.82 10.00 40.73 10.57L40.73 10.57L40.73 10.57Q41.65 11.14 42.74 11.14L42.74 11.14L42.74 11.14Q44.09 11.14 45.32 10.22L45.32 10.22L45.32 10.22Q45.56 10.05 45.78 10.05L45.78 10.05L45.78 10.05Q46.05 10.05 46.22 10.24L46.22 10.24L46.22 10.24Q46.40 10.43 46.40 10.74L46.40 10.74L46.40 10.74Q46.40 11.03 46.17 11.26L46.17 11.26L46.17 11.26Q44.66 12.47 42.74 12.47L42.74 12.47L42.74 12.47Q41.24 12.47 40.01 11.73L40.01 11.73L40.01 11.73Q38.77 10.99 38.05 9.70L38.05 9.70L38.05 9.70Q37.34 8.41 37.34 6.86L37.34 6.86L37.34 6.86Q37.34 5.32 38.05 4.04L38.05 4.04L38.05 4.04Q38.77 2.76 40.01 2.01L40.01 2.01L40.01 2.01Q41.24 1.26 42.74 1.26L42.74 1.26ZM52.39 4.61L52.39 4.61Q53.35 4.61 54.12 5.03L54.12 5.03L54.12 5.03Q54.89 5.45 55.33 6.25L55.33 6.25L55.33 6.25Q55.76 7.06 55.76 8.19L55.76 8.19L55.76 11.63L55.76 11.63Q55.76 11.94 55.56 12.14L55.56 12.14L55.56 12.14Q55.36 12.35 55.05 12.35L55.05 12.35L55.05 12.35Q54.74 12.35 54.54 12.14L54.54 12.14L54.54 12.14Q54.33 11.94 54.33 11.63L54.33 11.63L54.33 8.19L54.33 8.19Q54.33 7.06 53.73 6.47L53.73 6.47L53.73 6.47Q53.12 5.89 52.11 5.89L52.11 5.89L52.11 5.89Q51.52 5.89 51.04 6.13L51.04 6.13L51.04 6.13Q50.55 6.37 50.28 6.78L50.28 6.78L50.28 6.78Q50.01 7.18 50.01 7.69L50.01 7.69L50.01 11.63L50.01 11.63Q50.01 11.94 49.81 12.14L49.81 12.14L49.81 12.14Q49.62 12.35 49.29 12.35L49.29 12.35L49.29 12.35Q48.99 12.35 48.78 12.14L48.78 12.14L48.78 12.14Q48.58 11.94 48.58 11.63L48.58 11.63L48.58 2.11L48.58 2.11Q48.58 1.79 48.78 1.60L48.78 1.60L48.78 1.60Q48.99 1.40 49.29 1.40L49.29 1.40L49.29 1.40Q49.62 1.40 49.81 1.60L49.81 1.60L49.81 1.60Q50.01 1.79 50.01 2.11L50.01 2.11L50.01 5.54L50.01 5.54Q50.46 5.10 51.07 4.85L51.07 4.85L51.07 4.85Q51.69 4.61 52.39 4.61L52.39 4.61ZM65.02 8.39L65.02 8.39Q65.02 8.65 64.83 8.83L64.83 8.83L64.83 8.83Q64.65 9.00 64.37 9.00L64.37 9.00L59.05 9.00L59.05 9.00Q59.21 9.98 59.94 10.58L59.94 10.58L59.94 10.58Q60.68 11.19 61.74 11.19L61.74 11.19L61.74 11.19Q62.16 11.19 62.61 11.03L62.61 11.03L62.61 11.03Q63.07 10.88 63.36 10.65L63.36 10.65L63.36 10.65Q63.56 10.50 63.83 10.50L63.83 10.50L63.83 10.50Q64.09 10.50 64.25 10.64L64.25 10.64L64.25 10.64Q64.50 10.85 64.50 11.12L64.50 11.12L64.50 11.12Q64.50 11.37 64.27 11.54L64.27 11.54L64.27 11.54Q63.80 11.91 63.09 12.15L63.09 12.15L63.09 12.15Q62.38 12.39 61.74 12.39L61.74 12.39L61.74 12.39Q60.59 12.39 59.68 11.89L59.68 11.89L59.68 11.89Q58.77 11.40 58.26 10.51L58.26 10.51L58.26 10.51Q57.75 9.63 57.75 8.51L57.75 8.51L57.75 8.51Q57.75 7.39 58.23 6.50L58.23 6.50L58.23 6.50Q58.72 5.61 59.58 5.12L59.58 5.12L59.58 5.12Q60.44 4.62 61.53 4.62L61.53 4.62L61.53 4.62Q62.61 4.62 63.39 5.10L63.39 5.10L63.39 5.10Q64.18 5.57 64.60 6.43L64.60 6.43L64.60 6.43Q65.02 7.28 65.02 8.39L65.02 8.39ZM61.53 5.82L61.53 5.82Q60.51 5.82 59.87 6.38L59.87 6.38L59.87 6.38Q59.23 6.94 59.07 7.88L59.07 7.88L63.73 7.88L63.73 7.88Q63.60 6.94 63.03 6.38L63.03 6.38L63.03 6.38Q62.45 5.82 61.53 5.82L61.53 5.82ZM73.71 8.39L73.71 8.39Q73.71 8.65 73.53 8.83L73.53 8.83L73.53 8.83Q73.35 9.00 73.07 9.00L73.07 9.00L67.75 9.00L67.75 9.00Q67.90 9.98 68.63 10.58L68.63 10.58L68.63 10.58Q69.37 11.19 70.43 11.19L70.43 11.19L70.43 11.19Q70.85 11.19 71.31 11.03L71.31 11.03L71.31 11.03Q71.76 10.88 72.06 10.65L72.06 10.65L72.06 10.65Q72.25 10.50 72.52 10.50L72.52 10.50L72.52 10.50Q72.79 10.50 72.94 10.64L72.94 10.64L72.94 10.64Q73.19 10.85 73.19 11.12L73.19 11.12L73.19 11.12Q73.19 11.37 72.97 11.54L72.97 11.54L72.97 11.54Q72.49 11.91 71.78 12.15L71.78 12.15L71.78 12.15Q71.08 12.39 70.43 12.39L70.43 12.39L70.43 12.39Q69.29 12.39 68.38 11.89L68.38 11.89L68.38 11.89Q67.47 11.40 66.95 10.51L66.95 10.51L66.95 10.51Q66.44 9.63 66.44 8.51L66.44 8.51L66.44 8.51Q66.44 7.39 66.93 6.50L66.93 6.50L66.93 6.50Q67.41 5.61 68.27 5.12L68.27 5.12L68.27 5.12Q69.13 4.62 70.22 4.62L70.22 4.62L70.22 4.62Q71.30 4.62 72.09 5.10L72.09 5.10L72.09 5.10Q72.87 5.57 73.29 6.43L73.29 6.43L73.29 6.43Q73.71 7.28 73.71 8.39L73.71 8.39ZM70.22 5.82L70.22 5.82Q69.20 5.82 68.56 6.38L68.56 6.38L68.56 6.38Q67.93 6.94 67.76 7.88L67.76 7.88L72.42 7.88L72.42 7.88Q72.30 6.94 71.72 6.38L71.72 6.38L71.72 6.38Q71.15 5.82 70.22 5.82L70.22 5.82ZM79.28 4.59L79.28 4.59Q80.02 4.59 80.44 4.82L80.44 4.82L80.44 4.82Q80.86 5.04 80.86 5.38L80.86 5.38L80.86 5.38Q80.86 5.47 80.85 5.52L80.85 5.52L80.85 5.52Q80.72 5.96 80.29 5.96L80.29 5.96L80.29 5.96Q80.22 5.96 80.08 5.94L80.08 5.94L80.08 5.94Q79.52 5.84 79.17 5.84L79.17 5.84L79.17 5.84Q78.16 5.84 77.55 6.30L77.55 6.30L77.55 6.30Q76.93 6.76 76.93 7.55L76.93 7.55L76.93 11.63L76.93 11.63Q76.93 11.97 76.75 12.15L76.75 12.15L76.75 12.15Q76.58 12.33 76.23 12.33L76.23 12.33L76.23 12.33Q75.89 12.33 75.71 12.16L75.71 12.16L75.71 12.16Q75.53 11.98 75.53 11.63L75.53 11.63L75.53 5.38L75.53 5.38Q75.53 5.04 75.71 4.86L75.71 4.86L75.71 4.86Q75.89 4.68 76.23 4.68L76.23 4.68L76.23 4.68Q76.93 4.68 76.93 5.38L76.93 5.38L76.93 5.64L76.93 5.64Q77.35 5.15 77.97 4.87L77.97 4.87L77.97 4.87Q78.58 4.59 79.28 4.59L79.28 4.59Z"></path></g><!----><!----></svg>